<svg width="81" height="81" viewBox="0 0 81 81" fill="none" xmlns="http://www.w3.org/2000/svg">
<g clip-path="url(#clip0_906_2285)">
<path d="M51.9911 0.000118297C51.3681 0.0250414 50.7668 0.137195 50.1406 0.292965L7.79006 10.6111C2.78052 11.8386 -0.353558 16.8917 0.877019 21.9044L6.81494 46.1483C7.17476 47.5924 7.87536 48.9293 8.85807 50.047C9.84077 51.1646 11.077 52.0306 12.4631 52.5722V46.7309C12.4631 38.1418 19.4509 31.154 28.0401 31.154H67.2752L61.4339 7.10631C60.9172 5.01595 59.6955 3.16769 57.9748 1.87319C56.2541 0.578688 54.1428 -0.0828519 51.9911 0.000118297ZM55.7857 13.4368L58.3185 24.0478L47.8041 26.5775L45.1747 16.063L55.7857 13.4368ZM28.0401 37.3847C22.881 37.3847 18.6939 41.5718 18.6939 46.7309V71.654C18.6939 76.8131 22.881 81.0001 28.0401 81.0001H71.6554C76.8145 81.0001 81.0016 76.8131 81.0016 71.654V46.7309C81.0016 41.5718 76.8145 37.3847 71.6554 37.3847H28.0401ZM28.0401 42.3507H71.6554C74.0574 42.3507 76.0357 44.3289 76.0357 46.7309V49.8463H23.6598V46.7309C23.6598 44.3289 25.6381 42.3507 28.0401 42.3507ZM23.6598 59.1924H76.0357V71.654C76.0357 74.0559 74.0574 76.0342 71.6554 76.0342H28.0401C26.8804 76.0277 25.77 75.5641 24.95 74.744C24.13 73.924 23.6664 72.8137 23.6598 71.654V59.1924Z" fill="#3176EE"/>
</g>
<defs>
<clipPath id="clip0_906_2285">
<rect width="81" height="81" fill="white"/>
</clipPath>
</defs>
</svg>
